<?xml version="1.0" encoding="UTF-8" standalone="no"?>
<svg
   xmlns:dc="http://purl.org/dc/elements/1.1/"
   xmlns:cc="http://creativecommons.org/ns#"
   xmlns:rdf="http://www.w3.org/1999/02/22-rdf-syntax-ns#"
   xmlns:svg="http://www.w3.org/2000/svg"
   xmlns="http://www.w3.org/2000/svg"
   xmlns:sodipodi="http://sodipodi.sourceforge.net/DTD/sodipodi-0.dtd"
   xmlns:inkscape="http://www.inkscape.org/namespaces/inkscape"
   version="1.1"
   id="Layer_1"
   x="0px"
   y="0px"
   viewBox="0 0 300 300"
   style="enable-background:new 0 0 300 300;"
   xml:space="preserve"
   sodipodi:docname="collect.svg"
   inkscape:version="1.0.1 (0767f8302a, 2020-10-17)"><metadata
   id="metadata25"><rdf:RDF><cc:Work
       rdf:about=""><dc:format>image/svg+xml</dc:format><dc:type
         rdf:resource="http://purl.org/dc/dcmitype/StillImage" /></cc:Work></rdf:RDF></metadata><defs
   id="defs23" /><sodipodi:namedview
   pagecolor="#ffffff"
   bordercolor="#666666"
   borderopacity="1"
   objecttolerance="10"
   gridtolerance="10"
   guidetolerance="10"
   inkscape:pageopacity="0"
   inkscape:pageshadow="2"
   inkscape:window-width="1312"
   inkscape:window-height="704"
   id="namedview21"
   showgrid="false"
   inkscape:zoom="1.0556859"
   inkscape:cx="37.711069"
   inkscape:cy="150"
   inkscape:window-x="54"
   inkscape:window-y="27"
   inkscape:window-maximized="1"
   inkscape:current-layer="g18"
   inkscape:document-rotation="0" />
<style
   type="text/css"
   id="style2">
	.st0{fill:#FCBF92;}
	.st1{fill:#FAA749;}
	.st2{fill:#00AEEF;}
	.st3{fill:#FFFEFD;}
	.st4{fill:#454646;}
	.st5{fill:#FEFBF9;}
</style>
<g
   id="g18">
	<path
   class="st0"
   d="M77.93,188.69c29.34-7.11,58.29-4.24,86.95,3.65c12.23,3.37,24.28,7.41,36.38,11.26   c2.21,0.7,4.3,1.87,6.33,3.01c4.75,2.67,9.63,5.55,8.65,12.06c-0.99,6.61-6.01,9.17-12,10.29c-14.92,2.78-29.79,2.48-44.65-0.57   c-4.18-0.86-8.47-1.21-14.43-2.03c4.43,6.72,10.13,8.68,15.63,10.41c23.91,7.53,47.97,8.3,71.79-0.17   c13.82-4.92,27.26-10.89,41-16.07c7.24-2.72,15.67-8.38,21.68,0.68c5.75,8.65,0.6,16.43-6.67,21.43   c-27.93,19.18-54.57,41.14-89.75,46.22c-11.33,1.64-22.48-1.38-33.65-3.34c-31.21-5.47-62.68-9.46-93.67-16.23   c-4.64-8.87-1.94-18.27-1.37-27.3c0.9-14.23,2.31-28.45,3.57-42.67C74.07,195.39,73.88,191.19,77.93,188.69z"
   id="path4"
   style="fill:#885136;fill-opacity:1" />
	<path
   class="st1"
   d="M285.02,129.5c-0.21,29.52-24.88,53.44-54.87,53.22c-30.95-0.23-54.87-24.17-54.49-54.52   c0.36-28.88,25.95-53.26,55.57-52.96C261.51,75.56,285.23,99.48,285.02,129.5z"
   id="path6"
   style="fill:#39603d;fill-opacity:1" />
	<path
   class="st2"
   d="M77.93,188.69c-2.13,26.86-4.26,53.72-6.4,80.59c-2.89,4.31-7.04,5.65-12.09,5.61   c-15.72-0.13-31.44-0.17-47.16,0c-7.79,0.09-10.77-3.21-9.86-10.97c3-25.41,5.7-50.84,8.58-76.26c0.83-7.32,5.98-10.54,12.49-10.44   c15.35,0.24,30.7,1.12,46.04,1.99C75.17,179.54,77.41,183.52,77.93,188.69z"
   id="path8"
   style="fill:#a3bcb6;fill-opacity:1" />
	
	<path
   class="st3"
   d="M256.17,139.91c0.13,7.56-2.7,12.03-7.55,15.78c-4.37,3.38-11.92,2.64-13.06,10.75   c-0.25,1.79-8.22,2.1-8.68-0.23c-1.44-7.33-7.78-7.36-12.19-10.29c-1.65-1.1-3.09-2.56-4.48-3.99c-2.66-2.75-5.51-6.93-2.77-9.57   c2.95-2.83,7.97-2.68,11.53,1.35c5.69,6.45,12.7,6.38,20.23,3.82c2.48-0.84,4.27-2.21,4.4-4.79c0.13-2.67-1.85-4.4-4.11-5.08   c-5.76-1.73-11.67-2.96-17.45-4.65c-7.1-2.07-12.99-5.58-13.8-13.87c-0.81-8.25,2.65-14.23,10.17-17.74   c3.37-1.57,6.4-2.86,7.47-7.22c1.46-5.98,9.16-3.41,9.36-2.47c1.73,8.24,9.94,8.97,14.48,13.69c2.68,2.79,6.83,6.72,3.53,10.18   c-2.81,2.96-8.29,2.57-11.75-1.11c-5.14-5.45-11.02-5.8-17.39-3c-2.16,0.95-3.88,2.76-3.65,5.48c0.19,2.29,1.79,3.54,3.82,4.11   c5.46,1.53,11,2.79,16.43,4.42C248.74,127.88,255.84,131.36,256.17,139.91z"
   id="path12" />
	<path
   class="st4"
   d="M40.63,235.2c7.37-0.25,14.84,6.93,14.45,14.55c-0.4,7.86-4.41,12.98-12.86,13.5   c-7.75,0.47-14.65-5.26-15.15-12.49C26.55,243.19,33.3,235.44,40.63,235.2z"
   id="path14" />
	
<path
   class="st1"
   d="m 158.69865,66.220222 c -0.0952,13.38598 -11.28195,24.232619 -24.88106,24.132859 -14.03442,-0.1043 -24.88105,-10.960003 -24.70874,-24.72235 0.16324,-13.095769 11.76715,-24.150992 25.19847,-24.014956 13.73061,0.145106 24.48656,10.991739 24.39133,24.604447 z"
   id="path6-3"
   style="fill:#39603d;stroke-width:0.453455;fill-opacity:1" /><path
   class="st3"
   d="m 145.61648,70.940685 c 0.059,3.428117 -1.22433,5.455058 -3.42358,7.155513 -1.9816,1.532676 -5.40518,1.19712 -5.92212,4.874637 -0.11336,0.811684 -3.7274,0.952255 -3.93598,-0.104295 -0.65298,-3.323822 -3.52788,-3.337426 -5.52762,-4.666048 -0.7482,-0.4988 -1.40117,-1.160843 -2.03147,-1.809284 -1.20619,-1.247 -2.49854,-3.142439 -1.25607,-4.339559 1.33769,-1.283277 3.61403,-1.215259 5.22833,0.612163 2.58016,2.924782 5.75887,2.89304 9.17339,1.732197 1.12456,-0.380902 1.93625,-1.002135 1.9952,-2.172048 0.059,-1.210723 -0.83889,-1.9952 -1.8637,-2.303549 -2.6119,-0.784477 -5.29182,-1.342226 -7.91278,-2.108564 -3.21953,-0.938651 -5.89038,-2.530277 -6.25768,-6.289416 -0.3673,-3.741 1.20166,-6.452659 4.61163,-8.044285 1.52815,-0.711923 2.90211,-1.29688 3.38731,-3.273942 0.66204,-2.711659 4.15365,-1.54628 4.24434,-1.120033 0.78447,3.736466 4.50734,4.067488 6.56602,6.207794 1.21526,1.265138 3.09709,3.047215 1.60069,4.616168 -1.2742,1.342226 -3.75913,1.165378 -5.32809,-0.503335 -2.33075,-2.471327 -4.99707,-2.630037 -7.88557,-1.360364 -0.97947,0.430782 -1.75941,1.251535 -1.65511,2.484932 0.0862,1.038411 0.81168,1.605229 1.73219,1.863698 2.47587,0.693786 4.988,1.265139 7.45026,2.00427 3.64124,1.088291 6.86077,2.666313 7.01041,6.54335 z"
   id="path12-6"
   style="fill:#fffefd;stroke-width:0.453455" /></g>
</svg>
