<?xml version="1.0" encoding="UTF-8" standalone="no"?>
<svg
   xmlns:dc="http://purl.org/dc/elements/1.1/"
   xmlns:cc="http://creativecommons.org/ns#"
   xmlns:rdf="http://www.w3.org/1999/02/22-rdf-syntax-ns#"
   xmlns:svg="http://www.w3.org/2000/svg"
   xmlns="http://www.w3.org/2000/svg"
   xmlns:sodipodi="http://sodipodi.sourceforge.net/DTD/sodipodi-0.dtd"
   xmlns:inkscape="http://www.inkscape.org/namespaces/inkscape"
   version="1.1"
   id="Layer_1"
   x="0px"
   y="0px"
   viewBox="0 0 300 300"
   style="enable-background:new 0 0 300 300;"
   xml:space="preserve"
   sodipodi:docname="clipoard.svg"
   inkscape:version="1.0.1 (0767f8302a, 2020-10-17)"><metadata
   id="metadata23"><rdf:RDF><cc:Work
       rdf:about=""><dc:format>image/svg+xml</dc:format><dc:type
         rdf:resource="http://purl.org/dc/dcmitype/StillImage" /><dc:title></dc:title></cc:Work></rdf:RDF></metadata><defs
   id="defs21">
	
	
	
	
	
	
</defs><sodipodi:namedview
   pagecolor="#ffffff"
   bordercolor="#666666"
   borderopacity="1"
   objecttolerance="10"
   gridtolerance="10"
   guidetolerance="10"
   inkscape:pageopacity="0"
   inkscape:pageshadow="2"
   inkscape:window-width="1312"
   inkscape:window-height="704"
   id="namedview19"
   showgrid="false"
   inkscape:zoom="0.91437233"
   inkscape:cx="150"
   inkscape:cy="76.666788"
   inkscape:window-x="54"
   inkscape:window-y="27"
   inkscape:window-maximized="1"
   inkscape:current-layer="g922" />
<style
   type="text/css"
   id="style2">
	.st0{fill:#7671B4;}
	.st1{fill:#FAA749;}
	.st2{fill:#454545;}
	.st3{fill:#FFFFFF;}
	.st4{fill:#464646;}
</style>

<g
   transform="matrix(4.9716538,0,0,4.9433276,-87.063765,-152.52195)"
   id="g922"><g
     id="g1260"><path
       d="m 56.707,89.94 c 0,0.70848 -0.57319,1.2837 -1.2817,1.2837 -0.70851,0 -1.2837,-0.5752 -1.2837,-1.2837 V 67.328 c 0,-0.70848 0.5752,-1.2827 1.2837,-1.2827 0.7085,0 1.2817,0.5742 1.2817,1.2827 V 89.94"
       fill="#8897a7"
       id="path898"
       style="fill:#3c403d;fill-opacity:1" /><g
       id="g1233"><path
         d="M 61.136,46.541 42.451,31.352 c -0.29461,-0.2395 -0.71449,-0.2395 -1.0081,0 l -18.686,15.189 c -0.18739,0.15132 -0.29562,0.37979 -0.29562,0.62029 v 30.178 c 0,0.44092 0.35674,0.79866 0.79967,0.79866 h 37.372 c 0.44292,0 0.79866,-0.35774 0.79866,-0.79866 v -30.178 c 0,-0.2405 -0.10722,-0.46898 -0.29562,-0.62029"
         fill="#d5e1ee"
         id="path874"
         style="fill:#a3bcb6;fill-opacity:1" /><path
         d="m 71.15,57.509 c -0.61328,0 -1.2296,-0.20242 -1.7426,-0.61929 l -23.232,-18.885 -23.232,18.885 c -1.1865,0.96301 -2.9271,0.78263 -3.8911,-0.40084 -0.96301,-1.1865 -0.78263,-2.9271 0.40184,-3.8911 l 24.977,-20.302 c 1.0171,-0.82572 2.4722,-0.82572 3.4893,0 l 24.978,20.302 c 1.1845,0.96401 1.3648,2.7046 0.40084,3.8911 -0.54814,0.6714 -1.3448,1.0201 -2.1485,1.0201"
         fill="#2e9859"
         id="path876"
         style="fill:#39603d;fill-opacity:1" /><path
         d="m 36.908,59.032 c 0,-0.95299 -0.77361,-1.7266 -1.7286,-1.7266 h -4.6036 c -0.95499,0 -1.7276,0.77361 -1.7276,1.7266 V 78.936 H 36.908 V 59.032"
         fill="#465366"
         id="path878" /><path
         d="m 29.309,78.476 h 7.1379 V 59.032 c 0,-0.69846 -0.56818,-1.2666 -1.2676,-1.2666 h -4.6036 c -0.69846,0 -1.2666,0.56818 -1.2666,1.2666 z m 8.0588,0.92192 h -8.9807 v -20.365 c 0,-1.2055 0.98305,-2.1886 2.1886,-2.1886 h 4.6036 c 1.2065,0 2.1886,0.98305 2.1886,2.1886 v 20.365"
         fill="#556477"
         id="path880"
         style="fill:#3c403d;fill-opacity:1" /><path
         d="m 65.452,78.937 c 0,0.80768 -0.65536,1.462 -1.462,1.462 H 19.904 c -0.80668,0 -1.462,-0.65436 -1.462,-1.462 0,-0.80668 0.65537,-1.462 1.462,-1.462 H 63.99 c 0.80668,0 1.462,0.65537 1.462,1.462"
         fill="#2e9859"
         id="path882"
         style="fill:#39603d;fill-opacity:1" /><path
         d="M 57.15,69.798 H 41.327 V 58.43 H 57.15 v 11.368"
         fill="#becbd9"
         id="path884" /><path
         d="M 41.788,69.338 H 56.69 V 58.891 H 41.788 Z M 57.15,70.25992 H 41.327 c -0.25453,0 -0.46096,-0.20643 -0.46096,-0.46096 v -11.368 c 0,-0.25453 0.20643,-0.46196 0.46096,-0.46196 H 57.15 c 0.25654,0 0.46196,0.20743 0.46196,0.46196 v 11.368 c 0,0.25453 -0.20543,0.46096 -0.46196,0.46096"
         fill="#784129"
         id="path886" /><path
         d="m 38.342,50.292 c -0.25553,0 -0.46096,-0.20643 -0.46096,-0.46096 v -10.905 c 0,-0.25453 0.20543,-0.45996 0.46096,-0.45996 h 7.8333 c 0.25453,0 0.46096,0.20543 0.46096,0.45996 v 10.905 c 0,0.25453 -0.20643,0.46096 -0.46096,0.46096 H 38.342"
         fill="#becbd9"
         id="path888"
         style="fill:#a3bcb6;fill-opacity:1" /><path
         d="m 46.175,38.004 h -7.8333 c -0.51006,0 -0.92192,0.41286 -0.92192,0.92192 v 10.905 c 0,0.50906 0.41186,0.92192 0.92192,0.92192 h 7.8333 c 0.51006,0 0.92192,-0.41286 0.92192,-0.92192 v -10.905 c 0,-0.50906 -0.41186,-0.92192 -0.92192,-0.92192 z m 0,0.92192 v 10.905 h -7.8333 v -10.905 h 7.8333"
         fill="#465366"
         id="path890"
         style="fill:#3c403d;fill-opacity:1" /><path
         d="M 41.788,69.336 V 58.815 h 7.0868 z"
         fill="#e9f5f4"
         id="path892" /><path
         d="M 49.622,69.336 V 58.815 h 7.0868 z"
         fill="#e9f5f4"
         id="path894" /><path
         d="m 49.239,70.259 c -0.25453,0 -0.45996,-0.20643 -0.45996,-0.46096 v -11.368 c 0,-0.25453 0.20543,-0.46196 0.45996,-0.46196 0.25453,0 0.46196,0.20743 0.46196,0.46196 v 11.368 c 0,0.25453 -0.20743,0.46096 -0.46196,0.46096"
         fill="#784129"
         id="path896" /><path
         d="m 76.933,69.342 c 0,1.0191 -0.82372,1.8438 -1.8418,1.8438 h -39.332 c -1.0181,0 -1.8428,-0.82472 -1.8428,-1.8438 V 48.948 c 0,-1.0181 0.82472,-1.8428 1.8428,-1.8428 h 39.332 c 1.0181,0 1.8418,0.82472 1.8418,1.8428 v 20.394"
         fill="#885136"
         id="path900" /><path
         d="m 75.099,66.806 c 0,1.0191 -0.82372,1.8438 -1.8438,1.8438 h -35.661 c -1.0181,0 -1.8428,-0.82472 -1.8428,-1.8438 V 51.483 c 0,-1.0181 0.82472,-1.8438 1.8428,-1.8438 h 35.661 c 1.0201,0 1.8438,0.82572 1.8438,1.8438 v 15.323"
         fill="#ffffff"
         id="path902" /><g
         fill="#784129"
         id="g918"><path
           d="m 39.519,63.373 v -8.4536 h 2.901 v 1.1203 h -1.6134 v 2.2477 h 1.4991 v 1.1233 h -1.4991 v 3.9623 h -1.2877"
           id="path904" /><path
           d="m 44.652,62.061 c 0.07516,0.19641 0.22948,0.29361 0.46296,0.29361 0.23449,0 0.38781,-0.09921 0.46096,-0.29962 0.07516,-0.19942 0.11123,-0.54313 0.11123,-1.0311 v -3.9372 c 0,-0.40084 -0.03808,-0.69344 -0.11324,-0.87683 -0.07516,-0.18438 -0.22246,-0.27658 -0.44192,-0.27658 -0.21946,0 -0.37278,0.09219 -0.46096,0.27658 -0.08818,0.18338 -0.13228,0.47399 -0.13228,0.87081 v 3.9432 c 0,0.49704 0.03708,0.84276 0.11324,1.0372 z m 1.8849,0.79866 c -0.29461,0.40685 -0.7656,0.60927 -1.4139,0.60927 -0.6483,0 -1.1243,-0.20342 -1.428,-0.61127 -0.30163,-0.40885 -0.45395,-1.0251 -0.45395,-1.8468 v -3.8681 c 0,-1.5492 0.63332,-2.3238 1.898,-2.3238 0.65336,0 1.1233,0.19641 1.4099,0.59123 0.2856,0.39382 0.4299,0.97102 0.4299,1.7326 v 3.8681 c 0,0.82572 -0.14731,1.442 -0.44192,1.8489"
           id="path906" /><path
           d="m 49.438,58.384 h 0.51307 c 0.16434,0 0.28359,-0.03708 0.36376,-0.11123 0.07716,-0.07416 0.13328,-0.19942 0.16234,-0.37979 0.03207,-0.17737 0.0471,-0.45194 0.0471,-0.82071 v -0.05211 c 0,-0.45896 -0.03908,-0.75758 -0.11524,-0.89787 C 50.33087,55.981 50.1545,55.90985 49.87492,55.90985 h -0.43691 z m 0.40985,1.0181 -0.41486,-0.01904 v 3.9903 h -1.2867 v -8.4536 h 2.1274 c 0.44292,0 0.77161,0.09019 0.99106,0.26656 0.21645,0.17837 0.35975,0.42689 0.42789,0.74455 0.06914,0.31967 0.10422,0.73553 0.10422,1.2496 0,0.51307 -0.05512,0.90589 -0.16434,1.1744 -0.10823,0.26856 -0.30964,0.44994 -0.60526,0.54213 0.29161,0.05111 0.49503,0.24852 0.61127,0.59123 0.11524,0.34271 0.17236,1.0562 0.17236,2.1395 0,1.0843 0.01703,1.6665 0.0481,1.7456 h -1.2877 c -0.03107,-0.06313 -0.0471,-1.0732 -0.0471,-3.0293 0,-0.37578 -0.04509,-0.6243 -0.13428,-0.74856 -0.09019,-0.12326 -0.27056,-0.18739 -0.54213,-0.1934"
           id="path908" /><path
           d="m 56.052,58.384 h 0.51507 c 0.16234,0 0.28359,-0.03708 0.36175,-0.11123 0.07816,-0.07416 0.13328,-0.19942 0.16234,-0.37979 0.03107,-0.17737 0.0471,-0.45194 0.0471,-0.82071 v -0.05211 c 0,-0.45896 -0.03908,-0.75758 -0.11524,-0.89787 C 56.94686,55.981 56.76849,55.90985 56.48891,55.90985 H 56.052 Z m 0.40885,1.0181 -0.41286,-0.01904 v 3.9903 h -1.2877 v -8.4536 h 2.1274 c 0.44192,0 0.77061,0.09019 0.99006,0.26656 0.21745,0.17837 0.36075,0.42689 0.42889,0.74455 0.06814,0.31967 0.10322,0.73553 0.10322,1.2496 0,0.51307 -0.05411,0.90589 -0.16234,1.1744 -0.10923,0.26856 -0.31065,0.44994 -0.60426,0.54213 0.2896,0.05111 0.49303,0.24852 0.60827,0.59123 0.11624,0.34271 0.17436,1.0562 0.17436,2.1395 0,1.0843 0.01603,1.6665 0.0471,1.7456 h -1.2877 c -0.03106,-0.06313 -0.0471,-1.0732 -0.0471,-3.0293 0,-0.37578 -0.04509,-0.6243 -0.13528,-0.74856 -0.09019,-0.12326 -0.26956,-0.18739 -0.54213,-0.1934"
           id="path910" /><path
           d="m 59.612,63.373 v -8.4536 h 2.8339 v 1.1103 h -1.5462 v 2.4591 h 1.4681 v 1.0853 h -1.4681 v 2.6896 h 1.6023 v 1.1093 h -2.89"
           id="path912" /><path
           d="m 63.53,63.373 v -8.4536 h 1.0081 l 1.7927,5.0736 -0.09219,-2.3058 v -2.7678 h 1.1584 v 8.4536 h -0.9139 l -1.8378,-5.2489 0.07015,2.2196 v 3.0293 h -1.1855"
           id="path914" /><path
           d="m 69.097,63.373 v -7.3383 h -0.98906 v -1.1153 h 3.2227 v 1.1153 h -0.95198 v 7.3383 h -1.2817"
           id="path916" /></g><path
         d="m 45.111,46.169 c 0,0.51708 -0.41787,0.93495 -0.93395,0.93495 -0.51608,0 -0.93495,-0.41787 -0.93495,-0.93495 v -4.6136 c 0,-0.51608 0.41887,-0.93395 0.93495,-0.93395 0.51608,0 0.93395,0.41787 0.93395,0.93395 v 4.6136"
         fill="#ffffff"
         id="path920" /></g></g></g></svg>
