<?xml version="1.0" encoding="UTF-8" standalone="no"?>
<svg
   xmlns:dc="http://purl.org/dc/elements/1.1/"
   xmlns:cc="http://creativecommons.org/ns#"
   xmlns:rdf="http://www.w3.org/1999/02/22-rdf-syntax-ns#"
   xmlns:svg="http://www.w3.org/2000/svg"
   xmlns="http://www.w3.org/2000/svg"
   xmlns:sodipodi="http://sodipodi.sourceforge.net/DTD/sodipodi-0.dtd"
   xmlns:inkscape="http://www.inkscape.org/namespaces/inkscape"
   version="1.1"
   id="Layer_1"
   x="0px"
   y="0px"
   viewBox="0 0 300 300"
   style="enable-background:new 0 0 300 300;"
   xml:space="preserve"
   sodipodi:docname="people.svg"
   inkscape:version="1.0.1 (0767f8302a, 2020-10-17)"><metadata
   id="metadata29"><rdf:RDF><cc:Work
       rdf:about=""><dc:format>image/svg+xml</dc:format><dc:type
         rdf:resource="http://purl.org/dc/dcmitype/StillImage" /></cc:Work></rdf:RDF></metadata><defs
   id="defs27">
	
	
	
	
	
</defs><sodipodi:namedview
   pagecolor="#ffffff"
   bordercolor="#666666"
   borderopacity="1"
   objecttolerance="10"
   gridtolerance="10"
   guidetolerance="10"
   inkscape:pageopacity="0"
   inkscape:pageshadow="2"
   inkscape:window-width="1312"
   inkscape:window-height="704"
   id="namedview25"
   showgrid="false"
   inkscape:zoom="1.7143275"
   inkscape:cx="150"
   inkscape:cy="150"
   inkscape:window-x="54"
   inkscape:window-y="27"
   inkscape:window-maximized="1"
   inkscape:current-layer="Layer_1" />
<style
   type="text/css"
   id="style2">
	.st0{fill:#454545;}
	.st1{fill:#FAA749;}
	.st2{fill:#2BB673;}
</style>
<g
   id="g8">
		<path
   class="st0"
   d="m 44.86,137.08 c 16.13,3.78 28.34,12.08 33.12,28.85 2.55,8.96 1.71,10.06 -7.43,10.07 -20.25,0.02 -40.51,-0.43 -60.73,0.22 -7.91,0.25 -8.07,-3.26 -6.7,-8.75 3.64,-14.53 12.74,-24 27,-28.52 1.62,-0.51 3.58,-0.15 4.66,-1.94 3.37,-2.89 6.74,-2.87 10.08,0.07 z"
   id="path4" />
		<path
   class="st1"
   d="m 34.36,135.5 c -8.9,-3.67 -12.97,-10.33 -12.54,-19.93 0.34,-7.57 4.38,-12.64 10.87,-15.64 7.23,-3.35 14.28,-2.42 20.51,2.71 5.7,4.69 7.66,10.84 6.27,18.01 -1.53,7.86 -6.02,13.08 -13.97,15.04 -3.73,0.72 -7.45,1 -11.14,-0.19 z"
   id="path6" />
	</g><path
   class="st1"
   d="m 152.11,137 c -1.16,0 -2.32,0 -3.47,0 -10.12,-3.1 -19.98,-6.2 -26.05,-16.25 -7.27,-12.06 -6.77,-27.81 2.13,-38.68 9.14,-11.17 25.55,-15.5 38.23,-10.11 13.63,5.79 22.18,19.58 20.78,33.5 -1.5,14.87 -11.96,26.97 -25.81,29.91 -1.96,0.41 -3.87,1.08 -5.81,1.63 z"
   id="path10" /><path
   class="st2"
   d="m 209.92,179.2 c -0.01,-0.03 -0.02,-0.05 -0.03,-0.08 -6.63,-16.15 -18.8,-26.27 -24.92,-30.94 -4.59,-3.29 -20.9,-8.95 -32.86,-11.19 -1.16,-0.88 -2.31,-0.88 -3.47,0 -10.5,2.74 -21.8,3.2 -31.09,9.38 -16.57,9.63 -23.96,23.39 -23.96,23.39 v 0 c -5.39,8.38 -7.84,17.97 -9.38,27.98 -0.77,5.02 0.87,6.69 6.05,6.66 37.56,-0.22 75.13,-0.23 112.69,-0.28 1.63,0.18 2.53,0.28 2.53,0.28 h 10.62 c 0.02,0 -1.68,-18.38 -6.18,-25.2 z"
   id="path12"
   style="fill:#39603d;fill-opacity:1" /><path
   class="st0"
   d="m 286.81,217.19 c -11.34,-11.81 -24.06,-22.28 -34.11,-35.32 -6.09,-10.18 -14.56,-11.36 -27.26,-3.78 -0.2,0.19 -0.41,0.38 -0.61,0.58 -1.31,-1.45 -2.63,-2.89 -3.94,-4.34 -3.35,-3.35 -6.7,-6.7 -10.05,-10.05 0.08,-0.13 0.18,-0.25 0.26,-0.38 -1.42,-2.53 0.08,-4.23 1.46,-6.24 11.11,-16.15 15.06,-33.88 12.58,-53.4 -4.46,-35.16 -36.12,-62.51 -72.89,-62.43 -36.68,0.08 -68.28,27.76 -72.54,62.89 -3.04,25.1 5.03,46.1 21.71,64.38 0,0 22.92,24.54 62.94,21.45 13.16,-1.02 24.45,-7.81 35.52,-14.53 0.11,-0.11 0.23,-0.22 0.34,-0.33 4.69,4.66 9.39,9.33 14.08,13.99 -0.26,0.34 -0.54,0.65 -0.79,1 -2.98,6.4 -6.24,12.8 0.08,19.17 14.18,14.06 28.32,28.16 42.54,42.17 8.15,8.02 16.39,8.17 24.76,0.57 2.17,-1.97 4.25,-4.03 6.27,-6.14 10.64,-11.18 10.39,-18.08 -0.35,-29.26 z m -91.4,-70.8 c -1.93,2.58 -4.12,5.03 -6.6,7.28 -0.06,-0.01 -0.12,-0.02 -0.19,-0.03 -26.4,26.35 -71.62,1.16 -71.62,1.16 l -6.06,-4.82 c -6.43,-6 -10.73,-13.45 -11.51,-21.89 0,0 0,-0.01 0,-0.01 -4.43,-17.38 0.12,-36.45 13.89,-50.54 21.25,-21.74 55.81,-21.47 77.22,0.6 18.51,19.04 19.97,48.07 4.87,68.25 0,0 0,0 0,0 z"
   id="path14" /><g
   id="g20">
		<path
   class="st0"
   d="m 263.18,137 c 16.13,3.78 28.34,12.08 33.12,28.85 2.55,8.96 1.71,10.06 -7.43,10.07 -20.25,0.02 -40.51,-0.43 -60.73,0.22 -7.91,0.25 -8.07,-3.26 -6.7,-8.75 3.64,-14.53 12.74,-24 27,-28.52 1.62,-0.51 3.58,-0.15 4.66,-1.94 3.37,-2.89 6.73,-2.87 10.08,0.07 z"
   id="path16" />
		<path
   class="st1"
   d="m 252.68,135.42 c -8.9,-3.67 -12.97,-10.33 -12.54,-19.93 0.34,-7.57 4.38,-12.64 10.87,-15.64 7.22,-3.35 14.28,-2.42 20.51,2.71 5.7,4.69 7.66,10.84 6.27,18.01 -1.53,7.86 -6.02,13.08 -13.97,15.04 -3.73,0.72 -7.45,1 -11.14,-0.19 z"
   id="path18" />
	</g>
</svg>
