<?xml version="1.0" encoding="UTF-8"?>
<svg width="300pt" height="300pt" version="1.1" viewBox="0 0 105.83 105.83" xmlns="http://www.w3.org/2000/svg" xmlns:cc="http://creativecommons.org/ns#" xmlns:dc="http://purl.org/dc/elements/1.1/" xmlns:rdf="http://www.w3.org/1999/02/22-rdf-syntax-ns#">
 <metadata>
  <rdf:RDF>
   <cc:Work rdf:about="">
    <dc:format>image/svg+xml</dc:format>
    <dc:type rdf:resource="http://purl.org/dc/dcmitype/StillImage"/>
    <dc:title/>
   </cc:Work>
  </rdf:RDF>
 </metadata>
 <g transform="matrix(1.9656 0 0 -1.9656 -237.35 662.3)">
  <path d="m165.4 287.33c0-2.126-1.723-3.849-3.846-3.849h-27.751c-2.128 0-3.849 1.723-3.849 3.849v45.381c0 2.125 1.721 3.847 3.849 3.847h27.751c2.123 0 3.846-1.722 3.846-3.847v-45.381" fill="#556477"/>
  <path d="m160.78 332.86h-26.209c-0.264 0-0.48-0.216-0.48-0.48v-13.468c0-0.264 0.216-0.48 0.48-0.48h26.209c0.266 0 0.481 0.216 0.481 0.48v13.468c0 0.264-0.215 0.48-0.481 0.48" fill="#fff"/>
  <g fill="#3dba68">
   <path d="m144.36 313.67h-8.989c-0.498 0-0.901-0.405-0.901-0.902v-8.987c0-0.499 0.403-0.903 0.901-0.903h8.989c0.497 0 0.898 0.404 0.898 0.903v8.987c0 0.497-0.401 0.902-0.898 0.902"/>
   <path d="m158.94 313.67h-8.989c-0.497 0-0.901-0.405-0.901-0.902v-8.987c0-0.499 0.404-0.903 0.901-0.903h8.989c0.498 0 0.899 0.404 0.899 0.903v8.987c0 0.497-0.401 0.902-0.899 0.902"/>
   <path d="m144.36 299.47h-8.989c-0.498 0-0.901-0.405-0.901-0.903v-8.986c0-0.499 0.403-0.903 0.901-0.903h8.989c0.497 0 0.898 0.404 0.898 0.903v8.986c0 0.498-0.401 0.903-0.898 0.903"/>
  </g>
  <path d="m158.94 299.47h-8.989c-0.497 0-0.901-0.405-0.901-0.903v-8.986c0-0.499 0.404-0.903 0.901-0.903h8.989c0.498 0 0.899 0.404 0.899 0.903v8.986c0 0.498-0.401 0.903-0.899 0.903" fill="#f5b831"/>
  <g fill="#fff">
   <path d="m139.1 305.62v1.928h-1.807v1.467h1.807v1.913h1.506v-1.913h1.815v-1.467h-1.815v-1.928h-1.506"/>
   <path d="m152.47 307.55v1.45h3.959v-1.45h-3.959"/>
   <path d="m137.73 291.89v1.564h4.257v-1.564zm0 2.84v1.524h4.257v-1.524h-4.257"/>
   <path d="m156.1 292.31c0-0.996-0.386-1.569-1.158-1.723v-1.066h-0.661v1.03c-0.471 0.03-0.833 0.197-1.084 0.5-0.25 0.303-0.376 0.808-0.376 1.515v0.446h1.143v-0.556c0-0.612 0.156-0.918 0.469-0.918 0.165 0 0.284 0.054 0.358 0.163 0.073 0.109 0.11 0.293 0.11 0.553 0 0.459-0.211 0.885-0.634 1.277-0.012 0.012-0.11 0.101-0.296 0.266-0.185 0.165-0.293 0.263-0.323 0.294-0.567 0.517-0.851 1.125-0.851 1.823 0 1.063 0.481 1.624 1.443 1.685v1.015h0.661v-1.056c0.3-0.067 0.536-0.205 0.707-0.413 0.248-0.303 0.372-0.807 0.372-1.511v-0.028-0.377h-1.088v0.456c0 0.312-0.035 0.543-0.106 0.695-0.07 0.152-0.187 0.227-0.351 0.227-0.163 0-0.285-0.047-0.363-0.142-0.077-0.094-0.116-0.257-0.116-0.487 0-0.364 0.162-0.702 0.486-1.014l0.652-0.592c0.671-0.625 1.006-1.313 1.006-2.062"/>
  </g>
  <path d="m153.96 325.81c-0.132-0.399-0.509-0.674-0.932-0.674h-0.956v-4.138c0-0.541-0.447-0.987-0.988-0.987h-2.289v3.809c0 0.117-0.093 0.203-0.203 0.203h-1.764c-0.109 0-0.203-0.086-0.203-0.203v-3.809h-2.367c-0.549 0-0.995 0.446-0.995 0.987v4.138h-0.956c-0.424 0-0.8 0.275-0.933 0.674-0.142 0.4 0 0.847 0.337 1.105l5.353 4.076c0.18 0.133 0.392 0.203 0.603 0.203s0.423-0.07 0.596-0.203l5.36-4.076c0.337-0.258 0.479-0.705 0.337-1.105" fill="#f5b831"/>
 </g>
</svg>
