<?xml version="1.0" encoding="UTF-8"?>
<svg width="300pt" height="300pt" version="1.1" viewBox="0 0 105.83 105.83" xmlns="http://www.w3.org/2000/svg" xmlns:cc="http://creativecommons.org/ns#" xmlns:dc="http://purl.org/dc/elements/1.1/" xmlns:rdf="http://www.w3.org/1999/02/22-rdf-syntax-ns#">
 <metadata>
  <rdf:RDF>
   <cc:Work rdf:about="">
    <dc:format>image/svg+xml</dc:format>
    <dc:type rdf:resource="http://purl.org/dc/dcmitype/StillImage"/>
    <dc:title/>
   </cc:Work>
  </rdf:RDF>
 </metadata>
 <g transform="matrix(2.2325 0 0 -2.2325 -795.74 587.34)">
  <path d="m399.09 245.58c-0.05-2e-3 -0.101 6e-3 -0.15 0.022-0.083 0.029-2.05 0.712-2.14 3.208-0.026 0.674 0.281 1.526 0.607 2.429 0.387 1.071 0.82 2.282 0.662 3.148-0.23 1.285-1.1 1.345-1.197 1.349-0.259 7e-3 -0.465 0.22-0.463 0.48 1e-3 0.258 0.21 0.468 0.47 0.468 0.599-1e-3 1.82-0.446 2.124-2.129 0.203-1.113-0.278-2.454-0.705-3.635-0.291-0.815-0.57-1.585-0.553-2.077 0.068-1.845 1.481-2.338 1.494-2.342 0.249-0.082 0.382-0.351 0.3-0.598-0.068-0.2-0.252-0.325-0.449-0.323" fill="#becbd9"/>
  <path d="m396.25 256.14c0-0.459-0.37-0.829-0.829-0.83-0.458 0-0.83 0.372-0.83 0.83v1.318c0 0.459 0.372 0.83 0.83 0.829 0.459 1e-3 0.829-0.368 0.829-0.829v-1.318" fill="#becbd9"/>
  <path d="m395.81 223.27c0-0.196-0.157-0.356-0.354-0.356s-0.356 0.16-0.356 0.356l-1e-3 2.38c1e-3 0.198 0.161 0.358 0.356 0.358 0.198 0 0.355-0.16 0.355-0.358v-2.38" fill="#1b2a38"/>
  <path d="m396.88 226.83c0-0.523-0.424-2.369-0.947-2.369h-0.948c-0.524 0-0.949 1.846-0.949 2.369v17.93c0 0.524 0.423 0.948 0.949 0.948h0.949c0.522 0 0.946-0.424 0.946-0.948v-17.93" fill="#f5b831"/>
  <path d="m396.88 238.04c0-0.521-0.424-0.947-0.945-0.945h-0.949c-0.526 0-0.95 0.424-0.949 0.946v17.932c0 0.524 0.423 0.948 0.949 0.949h0.949c0.521 0 0.946-0.425 0.945-0.949v-17.933" fill="#f5b831"/>
  <path d="m396.88 236.87h-2.843v1.172l2.843-1e-3v-1.171" fill="#becbd9"/>
  <path d="m378.53 257.9c0-0.893-0.725-1.618-1.619-1.618h-0.809c-0.895 0-1.62 0.725-1.62 1.618l-0.807 2.995c0 0.894 0.723 1.618 1.616 1.618h2.428c0.893 0 1.619-0.724 1.619-1.618l-0.808-2.995" fill="#465366"/>
  <path d="m392.31 217.53c0-0.709-0.573-1.283-1.281-1.283h-29.04c-0.708 0-1.282 0.574-1.282 1.283v39.436c0 0.708 0.574 1.283 1.282 1.283h29.04c0.708 0 1.281-0.575 1.281-1.283v-39.436" fill="#885136"/>
  <path d="m389.63 219.48c0-0.753-0.612-1.363-1.365-1.363h-23.521c-0.755 0-1.365 0.61-1.365 1.363v35.538c0 0.753 0.61 1.363 1.365 1.363h23.521c0.753 0 1.365-0.61 1.365-1.363v-35.538" fill="#fff"/>
  <path d="m382.37 255.6c0-0.623-0.507-1.13-1.129-1.13h-9.465c-0.625 0-1.128 0.507-1.128 1.13v2.529c0 0.624 0.503 1.13 1.128 1.13h9.465c0.622 0 1.129-0.506 1.129-1.13v-2.529" fill="#556477"/>
  <g fill="#bdc2c5">
   <path d="m386.73 251.25h-10.581v0.623h10.581v-0.623"/>
   <path d="m386.73 249.68h-10.581v0.623h10.581v-0.623"/>
   <path d="m382.67 244.55h-17.333v0.624h17.333v-0.624"/>
   <path d="m382.67 242.98h-17.333v0.624h17.333v-0.624"/>
   <path d="m382.67 238.28h-17.333v0.623h17.333v-0.623"/>
   <path d="m382.67 236.71h-17.333v0.622h17.333v-0.622"/>
   <path d="m382.67 232.21h-17.333v0.625h17.333v-0.625"/>
   <path d="m382.67 230.64h-17.333v0.623h17.333v-0.623"/>
  </g>
  <g fill="#91a3a2">
   <path d="m386.94 243.52c0-0.082-0.065-0.148-0.146-0.148h-2.613c-0.081 0-0.148 0.066-0.148 0.148v2.545c0 0.082 0.067 0.148 0.148 0.148h2.613c0.081 0 0.146-0.066 0.146-0.148v-2.545"/>
   <path d="m386.94 239.33c0-0.082-0.065-0.148-0.146-0.148h-2.613c-0.081 0-0.148 0.066-0.148 0.148v2.545c0 0.08 0.067 0.146 0.148 0.146h2.613c0.081 0 0.146-0.066 0.146-0.146v-2.545"/>
   <path d="m386.94 235.14c0-0.083-0.065-0.148-0.146-0.148h-2.613c-0.081 0-0.148 0.065-0.148 0.148v2.542c0 0.083 0.067 0.149 0.148 0.149h2.613c0.081 0 0.146-0.066 0.146-0.149v-2.542"/>
   <path d="m386.94 230.96c0-0.08-0.065-0.148-0.146-0.148h-2.613c-0.081 0-0.148 0.068-0.148 0.148v2.545c0 0.08 0.067 0.146 0.148 0.146h2.613c0.081 0 0.146-0.066 0.146-0.146v-2.545"/>
  </g>
  <path d="m387.08 225.09c0-1.854-1.501-3.354-3.355-3.354s-3.355 1.5-3.355 3.354c0 1.851 1.501 3.355 3.355 3.355s3.355-1.504 3.355-3.355" fill="#374454"/>
  <path d="m386.27 225.17c0-1.402-1.139-2.539-2.541-2.539s-2.538 1.137-2.538 2.539 1.136 2.539 2.538 2.539 2.541-1.137 2.541-2.539" fill="#465366"/>
  <path d="m369.66 222.2c-0.024 0-0.051 2e-3 -0.077 4e-3 -0.286 0.035-0.514 0.254-0.561 0.539l-0.492 2.998-2.243-1.685c-0.285-0.215-0.69-0.157-0.906 0.129-0.214 0.285-0.155 0.691 0.13 0.906l3.097 2.326c0.181 0.137 0.422 0.168 0.629 0.082 0.211-0.084 0.363-0.273 0.399-0.496l0.303-1.854 1.042 2.446c0.1 0.232 0.327 0.386 0.581 0.392h0.013c0.249 0 0.476-0.14 0.584-0.367l1.271-2.646 0.912 2.175c0.138 0.329 0.518 0.485 0.847 0.346 0.33-0.139 0.484-0.517 0.346-0.846l-1.468-3.503c-0.1-0.235-0.326-0.391-0.581-0.397-0.273-0.029-0.49 0.137-0.6 0.365l-1.277 2.658-1.353-3.179c-0.102-0.24-0.337-0.393-0.596-0.393" fill="#556477"/>
  <path d="m373.79 250.14c-0.086-0.26-0.331-0.438-0.607-0.438h-0.624v-2.698c0-0.352-0.29-0.643-0.644-0.643h-1.491v2.483c0 0.076-0.063 0.133-0.134 0.133h-1.148c-0.072 0-0.133-0.057-0.133-0.133v-2.483h-1.542c-0.358 0-0.649 0.291-0.649 0.643v2.698h-0.624c-0.275 0-0.521 0.178-0.607 0.438-0.092 0.26 0 0.552 0.219 0.721l3.49 2.656c0.117 0.087 0.255 0.133 0.392 0.133 0.138 0 0.276-0.046 0.389-0.133l3.493-2.656c0.22-0.169 0.312-0.461 0.22-0.721" fill="#f5b831"/>
 </g>
</svg>
