<?xml version="1.0" encoding="UTF-8"?>
<svg width="300pt" height="300pt" version="1.1" viewBox="0 0 105.83 105.83" xmlns="http://www.w3.org/2000/svg" xmlns:cc="http://creativecommons.org/ns#" xmlns:dc="http://purl.org/dc/elements/1.1/" xmlns:rdf="http://www.w3.org/1999/02/22-rdf-syntax-ns#">
 <metadata>
  <rdf:RDF>
   <cc:Work rdf:about="">
    <dc:format>image/svg+xml</dc:format>
    <dc:type rdf:resource="http://purl.org/dc/dcmitype/StillImage"/>
    <dc:title/>
   </cc:Work>
  </rdf:RDF>
 </metadata>
 <g transform="matrix(1.7189 0 0 1.7189 -29.047 -52.279)">
  <path d="m61.136 46.541-18.685-15.189c-0.29461-0.2395-0.71449-0.2395-1.0081 0l-18.686 15.189c-0.18739 0.15132-0.29562 0.37979-0.29562 0.62029v30.178c0 0.44092 0.35674 0.79866 0.79967 0.79866h37.372c0.44292 0 0.79866-0.35774 0.79866-0.79866v-30.178c0-0.2405-0.10722-0.46898-0.29562-0.62029" fill="#d5e1ee"/>
  <path d="m71.15 57.509c-0.61328 0-1.2296-0.20242-1.7426-0.61929l-23.232-18.885-23.232 18.885c-1.1865 0.96301-2.9271 0.78263-3.8911-0.40084-0.96301-1.1865-0.78263-2.9271 0.40184-3.8911l24.977-20.302c1.0171-0.82572 2.4722-0.82572 3.4893 0l24.978 20.302c1.1845 0.96401 1.3648 2.7046 0.40084 3.8911-0.54814 0.6714-1.3448 1.0201-2.1485 1.0201" fill="#2e9859"/>
  <path d="m36.908 59.032c0-0.95299-0.77361-1.7266-1.7286-1.7266h-4.6036c-0.95499 0-1.7276 0.77361-1.7276 1.7266v19.904h8.0598v-19.904" fill="#465366"/>
  <path d="m29.309 78.476h7.1379v-19.444c0-0.69846-0.56818-1.2666-1.2676-1.2666h-4.6036c-0.69846 0-1.2666 0.56818-1.2666 1.2666zm8.0588 0.92192h-8.9807v-20.365c0-1.2055 0.98305-2.1886 2.1886-2.1886h4.6036c1.2065 0 2.1886 0.98305 2.1886 2.1886v20.365" fill="#556477"/>
  <path d="m65.452 78.937c0 0.80768-0.65536 1.462-1.462 1.462h-44.086c-0.80668 0-1.462-0.65436-1.462-1.462 0-0.80668 0.65537-1.462 1.462-1.462h44.086c0.80668 0 1.462 0.65537 1.462 1.462" fill="#2e9859"/>
  <path d="m57.15 69.798h-15.823v-11.368h15.823v11.368" fill="#becbd9"/>
  <path d="m41.788 69.338h14.902v-10.447h-14.902zm15.362 0.92192h-15.823c-0.25453 0-0.46096-0.20643-0.46096-0.46096v-11.368c0-0.25453 0.20643-0.46196 0.46096-0.46196h15.823c0.25654 0 0.46196 0.20743 0.46196 0.46196v11.368c0 0.25453-0.20543 0.46096-0.46196 0.46096" fill="#784129"/>
  <path d="m38.342 50.292c-0.25553 0-0.46096-0.20643-0.46096-0.46096v-10.905c0-0.25453 0.20543-0.45996 0.46096-0.45996h7.8333c0.25453 0 0.46096 0.20543 0.46096 0.45996v10.905c0 0.25453-0.20643 0.46096-0.46096 0.46096h-7.8333" fill="#becbd9"/>
  <path d="m46.175 38.004h-7.8333c-0.51006 0-0.92192 0.41286-0.92192 0.92192v10.905c0 0.50906 0.41186 0.92192 0.92192 0.92192h7.8333c0.51006 0 0.92192-0.41286 0.92192-0.92192v-10.905c0-0.50906-0.41186-0.92192-0.92192-0.92192zm0 0.92192v10.905h-7.8333v-10.905h7.8333" fill="#465366"/>
  <path d="m41.788 69.336v-10.521h7.0868z" fill="#e9f5f4"/>
  <path d="m49.622 69.336v-10.521h7.0868z" fill="#e9f5f4"/>
  <path d="m49.239 70.259c-0.25453 0-0.45996-0.20643-0.45996-0.46096v-11.368c0-0.25453 0.20543-0.46196 0.45996-0.46196 0.25453 0 0.46196 0.20743 0.46196 0.46196v11.368c0 0.25453-0.20743 0.46096-0.46196 0.46096" fill="#784129"/>
  <path d="m56.707 89.94c0 0.70848-0.57319 1.2837-1.2817 1.2837s-1.2837-0.5752-1.2837-1.2837v-22.612c0-0.70848 0.5752-1.2827 1.2837-1.2827s1.2817 0.5742 1.2817 1.2827v22.612" fill="#8897a7"/>
  <path d="m76.933 69.342c0 1.0191-0.82372 1.8438-1.8418 1.8438h-39.332c-1.0181 0-1.8428-0.82472-1.8428-1.8438v-20.394c0-1.0181 0.82472-1.8428 1.8428-1.8428h39.332c1.0181 0 1.8418 0.82472 1.8418 1.8428v20.394" fill="#885136"/>
  <path d="m75.099 66.806c0 1.0191-0.82372 1.8438-1.8438 1.8438h-35.661c-1.0181 0-1.8428-0.82472-1.8428-1.8438v-15.323c0-1.0181 0.82472-1.8438 1.8428-1.8438h35.661c1.0201 0 1.8438 0.82572 1.8438 1.8438v15.323" fill="#fff"/>
  <g fill="#784129">
   <path d="m39.519 63.373v-8.4536h2.901v1.1203h-1.6134v2.2477h1.4991v1.1233h-1.4991v3.9623h-1.2877"/>
   <path d="m44.652 62.061c0.07516 0.19641 0.22948 0.29361 0.46296 0.29361 0.23449 0 0.38781-0.09921 0.46096-0.29962 0.07516-0.19942 0.11123-0.54313 0.11123-1.0311v-3.9372c0-0.40084-0.03808-0.69344-0.11324-0.87683-0.07516-0.18438-0.22246-0.27658-0.44192-0.27658s-0.37278 0.09219-0.46096 0.27658c-0.08818 0.18338-0.13228 0.47399-0.13228 0.87081v3.9432c0 0.49704 0.03708 0.84276 0.11324 1.0372zm1.8849 0.79866c-0.29461 0.40685-0.7656 0.60927-1.4139 0.60927s-1.1243-0.20342-1.428-0.61127c-0.30163-0.40885-0.45395-1.0251-0.45395-1.8468v-3.8681c0-1.5492 0.63332-2.3238 1.898-2.3238 0.65336 0 1.1233 0.19641 1.4099 0.59123 0.2856 0.39382 0.4299 0.97102 0.4299 1.7326v3.8681c0 0.82572-0.14731 1.442-0.44192 1.8489"/>
   <path d="m49.438 58.384h0.51307c0.16434 0 0.28359-0.03708 0.36376-0.11123 0.07716-0.07416 0.13328-0.19942 0.16234-0.37979 0.03207-0.17737 0.0471-0.45194 0.0471-0.82071v-0.05211c0-0.45896-0.03908-0.75758-0.11524-0.89787-0.07816-0.14129-0.25453-0.21244-0.53411-0.21244h-0.43691zm0.40985 1.0181-0.41486-0.01904v3.9903h-1.2867v-8.4536h2.1274c0.44292 0 0.77161 0.09019 0.99106 0.26656 0.21645 0.17837 0.35975 0.42689 0.42789 0.74455 0.06914 0.31967 0.10422 0.73553 0.10422 1.2496 0 0.51307-0.05512 0.90589-0.16434 1.1744-0.10823 0.26856-0.30964 0.44994-0.60526 0.54213 0.29161 0.05111 0.49503 0.24852 0.61127 0.59123 0.11524 0.34271 0.17236 1.0562 0.17236 2.1395 0 1.0843 0.01703 1.6665 0.0481 1.7456h-1.2877c-0.03107-0.06313-0.0471-1.0732-0.0471-3.0293 0-0.37578-0.04509-0.6243-0.13428-0.74856-0.09019-0.12326-0.27056-0.18739-0.54213-0.1934"/>
   <path d="m56.052 58.384h0.51507c0.16234 0 0.28359-0.03708 0.36175-0.11123 0.07816-0.07416 0.13328-0.19942 0.16234-0.37979 0.03107-0.17737 0.0471-0.45194 0.0471-0.82071v-0.05211c0-0.45896-0.03908-0.75758-0.11524-0.89787-0.07616-0.14129-0.25453-0.21244-0.53411-0.21244h-0.43691zm0.40885 1.0181-0.41286-0.01904v3.9903h-1.2877v-8.4536h2.1274c0.44192 0 0.77061 0.09019 0.99006 0.26656 0.21745 0.17837 0.36075 0.42689 0.42889 0.74455 0.06814 0.31967 0.10322 0.73553 0.10322 1.2496 0 0.51307-0.05411 0.90589-0.16234 1.1744-0.10923 0.26856-0.31065 0.44994-0.60426 0.54213 0.2896 0.05111 0.49303 0.24852 0.60827 0.59123 0.11624 0.34271 0.17436 1.0562 0.17436 2.1395 0 1.0843 0.01603 1.6665 0.0471 1.7456h-1.2877c-0.03106-0.06313-0.0471-1.0732-0.0471-3.0293 0-0.37578-0.04509-0.6243-0.13528-0.74856-0.09019-0.12326-0.26956-0.18739-0.54213-0.1934"/>
   <path d="m59.612 63.373v-8.4536h2.8339v1.1103h-1.5462v2.4591h1.4681v1.0853h-1.4681v2.6896h1.6023v1.1093h-2.89"/>
   <path d="m63.53 63.373v-8.4536h1.0081l1.7927 5.0736-0.09219-2.3058v-2.7678h1.1584v8.4536h-0.9139l-1.8378-5.2489 0.07015 2.2196v3.0293h-1.1855"/>
   <path d="m69.097 63.373v-7.3383h-0.98906v-1.1153h3.2227v1.1153h-0.95198v7.3383h-1.2817"/>
  </g>
  <path d="m45.111 46.169c0 0.51708-0.41787 0.93495-0.93395 0.93495s-0.93495-0.41787-0.93495-0.93495v-4.6136c0-0.51608 0.41887-0.93395 0.93495-0.93395s0.93395 0.41787 0.93395 0.93395v4.6136" fill="#fff"/>
 </g>
</svg>
