<?xml version="1.0" encoding="UTF-8"?>
<svg width="300pt" height="300pt" version="1.1" viewBox="0 0 105.83 105.83" xmlns="http://www.w3.org/2000/svg" xmlns:cc="http://creativecommons.org/ns#" xmlns:dc="http://purl.org/dc/elements/1.1/" xmlns:rdf="http://www.w3.org/1999/02/22-rdf-syntax-ns#">
 <metadata>
  <rdf:RDF>
   <cc:Work rdf:about="">
    <dc:format>image/svg+xml</dc:format>
    <dc:type rdf:resource="http://purl.org/dc/dcmitype/StillImage"/>
    <dc:title/>
   </cc:Work>
  </rdf:RDF>
 </metadata>
 <g transform="matrix(1.652 0 0 -1.652 -542.07 619.3)">
  <path d="m360.79 352.82c-1.699 1.699-1.699 4.46 2e-3 6.161 1.699 1.699 4.459 1.697 6.157-2e-3 1.697-1.698 1.699-4.456 0-6.156-1.702-1.7-4.461-1.702-6.159-3e-3zm8.445 8.447c-4.982 4.983-13.058 4.981-18.045-5e-3 -4.984-4.984-4.984-13.059 0-18.042 4.985-4.986 13.061-4.988 18.045-3e-3 4.987 4.986 4.987 13.064 0 18.05" fill="#d3dae2"/>
  <path d="m379 344.25c-2.473 0-5.331 0.947-7.979 2.825-5.089 3.611-7.193 9.096-4.788 12.489 0.294 0.416 0.869 0.513 1.283 0.218 0.414-0.294 0.511-0.868 0.218-1.282-1.749-2.466 0.245-7.011 4.352-9.925 4.108-2.913 9.055-3.29 10.805-0.825 0.293 0.415 0.866 0.512 1.281 0.218s0.513-0.868 0.219-1.282c-1.155-1.629-3.11-2.436-5.391-2.436" fill="#f5b831"/>
  <path d="m360.58 344.95-23.752-23.752c-0.388-0.387-3.479-0.739-3.868-0.353l-4.086 4.088c-0.387 0.385-0.387 3.832 0 4.219l4.888 4.888 4.584-2.749-1.691 5.643 1.071 1.07 4.902-1.144-2.313 3.734 1.643 1.642 5.945-0.095-2.843 3.196 7.565 7.567c0.384 0.382 1.02 0.384 1.405-1e-3l6.55-6.549c0.388-0.389 0.383-1.022 0-1.404" fill="#d3dae2"/>
  <path d="m383.17 344.93c-1.27 0-2.3 1.03-2.3 2.3 0 1.269 1.03 2.299 2.3 2.299 1.269 0 2.299-1.03 2.299-2.299 0-1.27-1.03-2.3-2.299-2.3zm6.715 6.66h-13.42c-1.022 0-1.84-0.819-1.84-1.84v-23.143c0-1.021 0.818-1.839 1.84-1.839h13.42c1.019 0 1.84 0.818 1.84 1.839v23.143c0 1.021-0.821 1.84-1.84 1.84" fill="#3dba68"/>
  <path d="m383.64 346.3c-0.185 0-0.37 0.055-0.533 0.17-0.414 0.293-0.511 0.868-0.217 1.282 1.749 2.466-0.245 7.008-4.353 9.923-4.106 2.914-9.054 3.293-10.804 0.827-0.293-0.415-0.866-0.514-1.282-0.218-0.414 0.293-0.512 0.867-0.218 1.282 2.406 3.392 8.281 3.22 13.369-0.391 5.091-3.61 7.195-9.096 4.789-12.487-0.18-0.253-0.463-0.388-0.751-0.388" fill="#f5b831"/>
  <path d="m363.99 344.86c0-1.429-1.44-2.587-3.218-2.587-1.775 0-3.215 1.158-3.215 2.587s1.44 2.587 3.215 2.587c1.778 0 3.218-1.158 3.218-2.587" fill="#e1e9f1"/>
  <path d="m388.66 335.03c-0.116-0.349-0.443-0.588-0.812-0.588h-0.834v-3.607c0-0.471-0.389-0.861-0.862-0.861h-1.994v3.319c0 0.103-0.082 0.179-0.178 0.179h-1.537c-0.095 0-0.177-0.076-0.177-0.179v-3.319h-2.063c-0.478 0-0.867 0.39-0.867 0.861v3.607h-0.834c-0.369 0-0.697 0.239-0.813 0.588-0.123 0.347 0 0.737 0.294 0.963l4.665 3.551c0.159 0.116 0.342 0.178 0.526 0.178s0.369-0.062 0.519-0.178l4.672-3.551c0.295-0.226 0.418-0.616 0.295-0.963" fill="#2e9859"/>
 </g>
</svg>
