<?xml version="1.0" encoding="UTF-8"?>
<svg width="80pt" height="80pt" version="1.1" viewBox="0 0 28.222 28.222" xmlns="http://www.w3.org/2000/svg" xmlns:cc="http://creativecommons.org/ns#" xmlns:dc="http://purl.org/dc/elements/1.1/" xmlns:rdf="http://www.w3.org/1999/02/22-rdf-syntax-ns#">
 <metadata>
  <rdf:RDF>
   <cc:Work rdf:about="">
    <dc:format>image/svg+xml</dc:format>
    <dc:type rdf:resource="http://purl.org/dc/dcmitype/StillImage"/>
    <dc:title/>
   </cc:Work>
  </rdf:RDF>
 </metadata>
 <g transform="matrix(.60212 0 0 .60212 4.9162 24.832)">
  <g transform="translate(2.7406 -23.045)">
   <path d="m-5.2394 7.9373-4.7339 8.1379c-0.21802 0.375 0.05221 0.8449 0.48613 0.8449h9.4181c0.43251 0 0.70309-0.46778 0.48719-0.84279l-4.6838-8.1379c-0.2159-0.37465-0.75636-0.37571-0.97367-0.0021" fill="#3eaf3c"/>
   <path d="m-5.2451 5.8584-3.6664 6.3031c-0.21837 0.375 0.05221 0.84526 0.48613 0.84526h7.2944c0.43251 0 0.70309-0.46778 0.48754-0.84279l-3.6283-6.3031c-0.21555-0.37465-0.756-0.37606-0.97331-0.0025" fill="#288f3e"/>
   <path d="m-5.2525 3.6543-2.2426 3.8552c-0.21802 0.37465 0.05221 0.8449 0.48613 0.8449h4.4616c0.43251 0 0.70309-0.46778 0.48719-0.84279l-2.219-3.8552c-0.21555-0.37465-0.756-0.37571-0.97331-0.00212" fill="#3eaf3c"/>
   <path d="m8.0045 4.6085-6.4883 11.154c-0.2988 0.51364 0.07197 1.1578 0.66604 1.1578h12.908c0.59231 0 0.96344-0.64135 0.66746-1.155l-6.4195-11.153c-0.29563-0.51329-1.0361-0.51506-1.3342-0.0032" fill="#3eaf3c"/>
   <path d="m7.9968 1.7595-5.0253 8.6388c-0.2988 0.514 0.07161 1.1582 0.66604 1.1582h9.9981c0.59267 0 0.96344-0.64135 0.66781-1.155l-4.9724-8.6388c-0.29563-0.51329-1.0361-0.51541-1.3342-0.00318" fill="#288f3e"/>
   <path d="m7.9865-1.2613-3.0734 5.2836c-0.29916 0.51364 0.07161 1.1582 0.66569 1.1582h6.115c0.59302 0 0.96379-0.64135 0.66816-1.1553l-3.0413-5.2836c-0.29598-0.51364-1.0361-0.51541-1.3342-0.00282" fill="#3eaf3c"/>
   <path d="m25.223 1.4282-8.164 14.035c-0.37606 0.64664 0.09031 1.4573 0.8382 1.4573h16.243c0.74577 0 1.2125-0.8068 0.84032-1.4534l-8.0783-14.035c-0.37218-0.64629-1.3035-0.64841-1.6789-0.0038814" fill="#3eaf3c"/>
   <path d="m25.213-2.1563-6.3235 10.87c-0.37606 0.64664 0.09031 1.4573 0.8382 1.4573h12.58c0.74612 0 1.2128-0.80716 0.84067-1.4534l-6.2569-10.87c-0.37218-0.64594-1.3039-0.64841-1.6789-0.00353" fill="#288f3e"/>
   <path d="m25.2-5.9582-3.8675 6.6488c-0.37606 0.64629 0.09031 1.457 0.8382 1.457h7.6948c0.74577 0 1.2125-0.8068 0.83996-1.4534l-3.8266-6.6485c-0.37218-0.64629-1.3039-0.64841-1.6789-0.00388" fill="#3eaf3c"/>
  </g>
 </g>
</svg>
